<?xml version="1.0" encoding="UTF-8"?><svg id="_이어_1" xmlns="http://www.w3.org/2000/svg" viewBox="0 0 158.56 158.56"><defs><style>.cls-1,.cls-2,.cls-3,.cls-4,.cls-5,.cls-6,.cls-7,.cls-8{fill:none;stroke:#040000;stroke-linecap:round;stroke-width:3px;}.cls-1,.cls-2,.cls-5,.cls-6,.cls-7{stroke-miterlimit:10;}.cls-9{fill:#627388;}.cls-2{stroke-dasharray:0 0 0 0 6.9 6.9 6.9 6.9;}.cls-3{stroke-dasharray:0 0 0 0 6.69 6.69 6.69 6.69;}.cls-3,.cls-4,.cls-8{stroke-linejoin:round;}.cls-4{stroke-dasharray:0 0 0 0 0 0 6.69 6.69 6.69 6.69 6.69 6.69;}.cls-5{stroke-dasharray:0 0 0 0 0 0 5.05 5.05 5.05 5.05 5.05 5.05;}.cls-6{stroke-dasharray:0 0 0 0 0 0 6.9 6.9 6.9 6.9 6.9 6.9;}.cls-7{stroke-dasharray:0 0 0 0 5.05 5.05 5.05 5.05;}</style></defs><polygon class="cls-9" points="144.66 100.4 98.34 146.21 98.34 62.09 144.66 16.51 144.66 100.4"/><polygon class="cls-8" points="99.24 61.02 15.19 60.45 61.65 14.74 144.88 15.31 99.24 61.02"/><rect class="cls-8" x="15.19" y="61.1" width="84.05" height="84.12"/><g><line class="cls-1" x1="62.39" y1="16.18" x2="62.39" y2="20.18"/><line class="cls-2" x1="62.39" y1="27.08" x2="62.39" y2="51.23"/><line class="cls-6" x1="62.39" y1="54.68" x2="62.39" y2="92.62"/><polyline class="cls-1" points="62.39 96.07 62.39 100.07 59.54 102.89"/><line class="cls-7" x1="55.95" y1="106.44" x2="43.38" y2="118.87"/><line class="cls-5" x1="41.59" y1="120.64" x2="21.83" y2="140.17"/><line class="cls-1" x1="20.04" y1="141.95" x2="17.19" y2="144.76"/></g><polygon class="cls-8" points="145.39 99.41 99.08 145.22 99.08 61.1 145.39 15.52 145.39 99.41"/><g><line class="cls-8" x1="62.75" y1="99.57" x2="66.75" y2="99.57"/><line class="cls-3" x1="73.44" y1="99.57" x2="96.85" y2="99.57"/><line class="cls-4" x1="100.2" y1="99.57" x2="136.99" y2="99.57"/><line class="cls-8" x1="140.33" y1="99.57" x2="144.33" y2="99.57"/></g></svg>